<svg class="rich-terminal" viewBox="0 0 1726 1123.6" xmlns="http://www.w3.org/2000/svg">
    <!-- Generated with Rich https://www.textualize.io -->
    <style>

    @font-face {
        font-family: "Fira Code";
        src: local("FiraCode-Regular"),
                url("https://cdnjs.cloudflare.com/ajax/libs/firacode/6.2.0/woff2/FiraCode-Regular.woff2") format("woff2"),
                url("https://cdnjs.cloudflare.com/ajax/libs/firacode/6.2.0/woff/FiraCode-Regular.woff") format("woff");
        font-style: normal;
        font-weight: 400;
    }
    @font-face {
        font-family: "Fira Code";
        src: local("FiraCode-Bold"),
                url("https://cdnjs.cloudflare.com/ajax/libs/firacode/6.2.0/woff2/FiraCode-Bold.woff2") format("woff2"),
                url("https://cdnjs.cloudflare.com/ajax/libs/firacode/6.2.0/woff/FiraCode-Bold.woff") format("woff");
        font-style: bold;
        font-weight: 700;
    }

    .terminal-3826670751-matrix {
        font-family: Fira Code, monospace;
        font-size: 20px;
        line-height: 24.4px;
        font-variant-east-asian: full-width;
    }

    .terminal-3826670751-title {
        font-size: 18px;
        font-weight: bold;
        font-family: arial;
    }

    .terminal-3826670751-r1 { fill: #e0e0e0 }
.terminal-3826670751-r2 { fill: #c5c8c6 }
.terminal-3826670751-r3 { fill: #121212 }
.terminal-3826670751-r4 { fill: #656565 }
.terminal-3826670751-r5 { fill: #797979 }
    </style>

    <defs>
    <clipPath id="terminal-3826670751-clip-terminal">
      <rect x="0" y="0" width="1707.0" height="1072.6" />
    </clipPath>
    <clipPath id="terminal-3826670751-line-0">
    <rect x="0" y="1.5" width="1708" height="24.65"/>
            </clipPath>
<clipPath id="terminal-3826670751-line-1">
    <rect x="0" y="25.9" width="1708" height="24.65"/>
            </clipPath>
<clipPath id="terminal-3826670751-line-2">
    <rect x="0" y="50.3" width="1708" height="24.65"/>
            </clipPath>
<clipPath id="terminal-3826670751-line-3">
    <rect x="0" y="74.7" width="1708" height="24.65"/>
            </clipPath>
<clipPath id="terminal-3826670751-line-4">
    <rect x="0" y="99.1" width="1708" height="24.65"/>
            </clipPath>
<clipPath id="terminal-3826670751-line-5">
    <rect x="0" y="123.5" width="1708" height="24.65"/>
            </clipPath>
<clipPath id="terminal-3826670751-line-6">
    <rect x="0" y="147.9" width="1708" height="24.65"/>
            </clipPath>
<clipPath id="terminal-3826670751-line-7">
    <rect x="0" y="172.3" width="1708" height="24.65"/>
            </clipPath>
<clipPath id="terminal-3826670751-line-8">
    <rect x="0" y="196.7" width="1708" height="24.65"/>
            </clipPath>
<clipPath id="terminal-3826670751-line-9">
    <rect x="0" y="221.1" width="1708" height="24.65"/>
            </clipPath>
<clipPath id="terminal-3826670751-line-10">
    <rect x="0" y="245.5" width="1708" height="24.65"/>
            </clipPath>
<clipPath id="terminal-3826670751-line-11">
    <rect x="0" y="269.9" width="1708" height="24.65"/>
            </clipPath>
<clipPath id="terminal-3826670751-line-12">
    <rect x="0" y="294.3" width="1708" height="24.65"/>
            </clipPath>
<clipPath id="terminal-3826670751-line-13">
    <rect x="0" y="318.7" width="1708" height="24.65"/>
            </clipPath>
<clipPath id="terminal-3826670751-line-14">
    <rect x="0" y="343.1" width="1708" height="24.65"/>
            </clipPath>
<clipPath id="terminal-3826670751-line-15">
    <rect x="0" y="367.5" width="1708" height="24.65"/>
            </clipPath>
<clipPath id="terminal-3826670751-line-16">
    <rect x="0" y="391.9" width="1708" height="24.65"/>
            </clipPath>
<clipPath id="terminal-3826670751-line-17">
    <rect x="0" y="416.3" width="1708" height="24.65"/>
            </clipPath>
<clipPath id="terminal-3826670751-line-18">
    <rect x="0" y="440.7" width="1708" height="24.65"/>
            </clipPath>
<clipPath id="terminal-3826670751-line-19">
    <rect x="0" y="465.1" width="1708" height="24.65"/>
            </clipPath>
<clipPath id="terminal-3826670751-line-20">
    <rect x="0" y="489.5" width="1708" height="24.65"/>
            </clipPath>
<clipPath id="terminal-3826670751-line-21">
    <rect x="0" y="513.9" width="1708" height="24.65"/>
            </clipPath>
<clipPath id="terminal-3826670751-line-22">
    <rect x="0" y="538.3" width="1708" height="24.65"/>
            </clipPath>
<clipPath id="terminal-3826670751-line-23">
    <rect x="0" y="562.7" width="1708" height="24.65"/>
            </clipPath>
<clipPath id="terminal-3826670751-line-24">
    <rect x="0" y="587.1" width="1708" height="24.65"/>
            </clipPath>
<clipPath id="terminal-3826670751-line-25">
    <rect x="0" y="611.5" width="1708" height="24.65"/>
            </clipPath>
<clipPath id="terminal-3826670751-line-26">
    <rect x="0" y="635.9" width="1708" height="24.65"/>
            </clipPath>
<clipPath id="terminal-3826670751-line-27">
    <rect x="0" y="660.3" width="1708" height="24.65"/>
            </clipPath>
<clipPath id="terminal-3826670751-line-28">
    <rect x="0" y="684.7" width="1708" height="24.65"/>
            </clipPath>
<clipPath id="terminal-3826670751-line-29">
    <rect x="0" y="709.1" width="1708" height="24.65"/>
            </clipPath>
<clipPath id="terminal-3826670751-line-30">
    <rect x="0" y="733.5" width="1708" height="24.65"/>
            </clipPath>
<clipPath id="terminal-3826670751-line-31">
    <rect x="0" y="757.9" width="1708" height="24.65"/>
            </clipPath>
<clipPath id="terminal-3826670751-line-32">
    <rect x="0" y="782.3" width="1708" height="24.65"/>
            </clipPath>
<clipPath id="terminal-3826670751-line-33">
    <rect x="0" y="806.7" width="1708" height="24.65"/>
            </clipPath>
<clipPath id="terminal-3826670751-line-34">
    <rect x="0" y="831.1" width="1708" height="24.65"/>
            </clipPath>
<clipPath id="terminal-3826670751-line-35">
    <rect x="0" y="855.5" width="1708" height="24.65"/>
            </clipPath>
<clipPath id="terminal-3826670751-line-36">
    <rect x="0" y="879.9" width="1708" height="24.65"/>
            </clipPath>
<clipPath id="terminal-3826670751-line-37">
    <rect x="0" y="904.3" width="1708" height="24.65"/>
            </clipPath>
<clipPath id="terminal-3826670751-line-38">
    <rect x="0" y="928.7" width="1708" height="24.65"/>
            </clipPath>
<clipPath id="terminal-3826670751-line-39">
    <rect x="0" y="953.1" width="1708" height="24.65"/>
            </clipPath>
<clipPath id="terminal-3826670751-line-40">
    <rect x="0" y="977.5" width="1708" height="24.65"/>
            </clipPath>
<clipPath id="terminal-3826670751-line-41">
    <rect x="0" y="1001.9" width="1708" height="24.65"/>
            </clipPath>
<clipPath id="terminal-3826670751-line-42">
    <rect x="0" y="1026.3" width="1708" height="24.65"/>
            </clipPath>
    </defs>

    <rect fill="#292929" stroke="rgba(255,255,255,0.35)" stroke-width="1" x="1" y="1" width="1724" height="1121.6" rx="8"/><text class="terminal-3826670751-title" fill="#c5c8c6" text-anchor="middle" x="862" y="27">ObservedApp</text>
            <g transform="translate(26,22)">
            <circle cx="0" cy="0" r="7" fill="#ff5f57"/>
            <circle cx="22" cy="0" r="7" fill="#febc2e"/>
            <circle cx="44" cy="0" r="7" fill="#28c840"/>
            </g>

    <g transform="translate(9, 41)" clip-path="url(#terminal-3826670751-clip-terminal)">
    <rect fill="#1e1e1e" x="0" y="1.5" width="890.6" height="24.65" shape-rendering="crispEdges"/><rect fill="#1e1e1e" x="890.6" y="1.5" width="793" height="24.65" shape-rendering="crispEdges"/><rect fill="#000000" x="1683.6" y="1.5" width="24.4" height="24.65" shape-rendering="crispEdges"/><rect fill="#1e1e1e" x="0" y="25.9" width="890.6" height="24.65" shape-rendering="crispEdges"/><rect fill="#1e1e1e" x="890.6" y="25.9" width="793" height="24.65" shape-rendering="crispEdges"/><rect fill="#000000" x="1683.6" y="25.9" width="24.4" height="24.65" shape-rendering="crispEdges"/><rect fill="#1e1e1e" x="0" y="50.3" width="976" height="24.65" shape-rendering="crispEdges"/><rect fill="#1e1e1e" x="976" y="50.3" width="707.6" height="24.65" shape-rendering="crispEdges"/><rect fill="#000000" x="1683.6" y="50.3" width="24.4" height="24.65" shape-rendering="crispEdges"/><rect fill="#1e1e1e" x="0" y="74.7" width="122" height="24.65" shape-rendering="crispEdges"/><rect fill="#1e1e1e" x="122" y="74.7" width="1561.6" height="24.65" shape-rendering="crispEdges"/><rect fill="#000000" x="1683.6" y="74.7" width="24.4" height="24.65" shape-rendering="crispEdges"/><rect fill="#1e1e1e" x="0" y="99.1" width="366" height="24.65" shape-rendering="crispEdges"/><rect fill="#1e1e1e" x="366" y="99.1" width="1317.6" height="24.65" shape-rendering="crispEdges"/><rect fill="#000000" x="1683.6" y="99.1" width="24.4" height="24.65" shape-rendering="crispEdges"/><rect fill="#1e1e1e" x="0" y="123.5" width="976" height="24.65" shape-rendering="crispEdges"/><rect fill="#1e1e1e" x="976" y="123.5" width="707.6" height="24.65" shape-rendering="crispEdges"/><rect fill="#000000" x="1683.6" y="123.5" width="24.4" height="24.65" shape-rendering="crispEdges"/><rect fill="#1e1e1e" x="0" y="147.9" width="536.8" height="24.65" shape-rendering="crispEdges"/><rect fill="#1e1e1e" x="536.8" y="147.9" width="1146.8" height="24.65" shape-rendering="crispEdges"/><rect fill="#000000" x="1683.6" y="147.9" width="24.4" height="24.65" shape-rendering="crispEdges"/><rect fill="#1e1e1e" x="0" y="172.3" width="793" height="24.65" shape-rendering="crispEdges"/><rect fill="#1e1e1e" x="793" y="172.3" width="890.6" height="24.65" shape-rendering="crispEdges"/><rect fill="#000000" x="1683.6" y="172.3" width="24.4" height="24.65" shape-rendering="crispEdges"/><rect fill="#1e1e1e" x="0" y="196.7" width="963.8" height="24.65" shape-rendering="crispEdges"/><rect fill="#1e1e1e" x="963.8" y="196.7" width="719.8" height="24.65" shape-rendering="crispEdges"/><rect fill="#000000" x="1683.6" y="196.7" width="24.4" height="24.65" shape-rendering="crispEdges"/><rect fill="#1e1e1e" x="0" y="221.1" width="109.8" height="24.65" shape-rendering="crispEdges"/><rect fill="#1e1e1e" x="109.8" y="221.1" width="1573.8" height="24.65" shape-rendering="crispEdges"/><rect fill="#000000" x="1683.6" y="221.1" width="24.4" height="24.65" shape-rendering="crispEdges"/><rect fill="#1e1e1e" x="0" y="245.5" width="463.6" height="24.65" shape-rendering="crispEdges"/><rect fill="#1e1e1e" x="463.6" y="245.5" width="1220" height="24.65" shape-rendering="crispEdges"/><rect fill="#000000" x="1683.6" y="245.5" width="24.4" height="24.65" shape-rendering="crispEdges"/><rect fill="#1e1e1e" x="0" y="269.9" width="963.8" height="24.65" shape-rendering="crispEdges"/><rect fill="#1e1e1e" x="963.8" y="269.9" width="719.8" height="24.65" shape-rendering="crispEdges"/><rect fill="#000000" x="1683.6" y="269.9" width="24.4" height="24.65" shape-rendering="crispEdges"/><rect fill="#1e1e1e" x="0" y="294.3" width="854" height="24.65" shape-rendering="crispEdges"/><rect fill="#1e1e1e" x="854" y="294.3" width="829.6" height="24.65" shape-rendering="crispEdges"/><rect fill="#000000" x="1683.6" y="294.3" width="24.4" height="24.65" shape-rendering="crispEdges"/><rect fill="#1e1e1e" x="0" y="318.7" width="976" height="24.65" shape-rendering="crispEdges"/><rect fill="#1e1e1e" x="976" y="318.7" width="707.6" height="24.65" shape-rendering="crispEdges"/><rect fill="#000000" x="1683.6" y="318.7" width="24.4" height="24.65" shape-rendering="crispEdges"/><rect fill="#1e1e1e" x="0" y="343.1" width="1683.6" height="24.65" shape-rendering="crispEdges"/><rect fill="#000000" x="1683.6" y="343.1" width="24.4" height="24.65" shape-rendering="crispEdges"/><rect fill="#1e1e1e" x="0" y="367.5" width="1683.6" height="24.65" shape-rendering="crispEdges"/><rect fill="#000000" x="1683.6" y="367.5" width="24.4" height="24.65" shape-rendering="crispEdges"/><rect fill="#1e1e1e" x="0" y="391.9" width="1683.6" height="24.65" shape-rendering="crispEdges"/><rect fill="#000000" x="1683.6" y="391.9" width="24.4" height="24.65" shape-rendering="crispEdges"/><rect fill="#1e1e1e" x="0" y="416.3" width="1683.6" height="24.65" shape-rendering="crispEdges"/><rect fill="#000000" x="1683.6" y="416.3" width="24.4" height="24.65" shape-rendering="crispEdges"/><rect fill="#1e1e1e" x="0" y="440.7" width="1683.6" height="24.65" shape-rendering="crispEdges"/><rect fill="#000000" x="1683.6" y="440.7" width="24.4" height="24.65" shape-rendering="crispEdges"/><rect fill="#1e1e1e" x="0" y="465.1" width="1683.6" height="24.65" shape-rendering="crispEdges"/><rect fill="#000000" x="1683.6" y="465.1" width="24.4" height="24.65" shape-rendering="crispEdges"/><rect fill="#1e1e1e" x="0" y="489.5" width="1683.6" height="24.65" shape-rendering="crispEdges"/><rect fill="#000000" x="1683.6" y="489.5" width="24.4" height="24.65" shape-rendering="crispEdges"/><rect fill="#1e1e1e" x="0" y="513.9" width="1683.6" height="24.65" shape-rendering="crispEdges"/><rect fill="#000000" x="1683.6" y="513.9" width="24.4" height="24.65" shape-rendering="crispEdges"/><rect fill="#1e1e1e" x="0" y="538.3" width="1683.6" height="24.65" shape-rendering="crispEdges"/><rect fill="#000000" x="1683.6" y="538.3" width="24.4" height="24.65" shape-rendering="crispEdges"/><rect fill="#1e1e1e" x="0" y="562.7" width="1683.6" height="24.65" shape-rendering="crispEdges"/><rect fill="#000000" x="1683.6" y="562.7" width="24.4" height="24.65" shape-rendering="crispEdges"/><rect fill="#1e1e1e" x="0" y="587.1" width="1683.6" height="24.65" shape-rendering="crispEdges"/><rect fill="#000000" x="1683.6" y="587.1" width="24.4" height="24.65" shape-rendering="crispEdges"/><rect fill="#1e1e1e" x="0" y="611.5" width="1683.6" height="24.65" shape-rendering="crispEdges"/><rect fill="#000000" x="1683.6" y="611.5" width="24.4" height="24.65" shape-rendering="crispEdges"/><rect fill="#1e1e1e" x="0" y="635.9" width="1683.6" height="24.65" shape-rendering="crispEdges"/><rect fill="#000000" x="1683.6" y="635.9" width="24.4" height="24.65" shape-rendering="crispEdges"/><rect fill="#1e1e1e" x="0" y="660.3" width="1683.6" height="24.65" shape-rendering="crispEdges"/><rect fill="#000000" x="1683.6" y="660.3" width="24.4" height="24.65" shape-rendering="crispEdges"/><rect fill="#1e1e1e" x="0" y="684.7" width="1683.6" height="24.65" shape-rendering="crispEdges"/><rect fill="#000000" x="1683.6" y="684.7" width="24.4" height="24.65" shape-rendering="crispEdges"/><rect fill="#1e1e1e" x="0" y="709.1" width="1683.6" height="24.65" shape-rendering="crispEdges"/><rect fill="#000000" x="1683.6" y="709.1" width="24.4" height="24.65" shape-rendering="crispEdges"/><rect fill="#1e1e1e" x="0" y="733.5" width="1683.6" height="24.65" shape-rendering="crispEdges"/><rect fill="#000000" x="1683.6" y="733.5" width="24.4" height="24.65" shape-rendering="crispEdges"/><rect fill="#1e1e1e" x="0" y="757.9" width="1683.6" height="24.65" shape-rendering="crispEdges"/><rect fill="#000000" x="1683.6" y="757.9" width="24.4" height="24.65" shape-rendering="crispEdges"/><rect fill="#1e1e1e" x="0" y="782.3" width="1683.6" height="24.65" shape-rendering="crispEdges"/><rect fill="#000000" x="1683.6" y="782.3" width="24.4" height="24.65" shape-rendering="crispEdges"/><rect fill="#1e1e1e" x="0" y="806.7" width="1683.6" height="24.65" shape-rendering="crispEdges"/><rect fill="#000000" x="1683.6" y="806.7" width="24.4" height="24.65" shape-rendering="crispEdges"/><rect fill="#1e1e1e" x="0" y="831.1" width="1683.6" height="24.65" shape-rendering="crispEdges"/><rect fill="#000000" x="1683.6" y="831.1" width="24.4" height="24.65" shape-rendering="crispEdges"/><rect fill="#1e1e1e" x="0" y="855.5" width="1683.6" height="24.65" shape-rendering="crispEdges"/><rect fill="#000000" x="1683.6" y="855.5" width="24.4" height="24.65" shape-rendering="crispEdges"/><rect fill="#1e1e1e" x="0" y="879.9" width="1683.6" height="24.65" shape-rendering="crispEdges"/><rect fill="#000000" x="1683.6" y="879.9" width="24.4" height="24.65" shape-rendering="crispEdges"/><rect fill="#1e1e1e" x="0" y="904.3" width="1683.6" height="24.65" shape-rendering="crispEdges"/><rect fill="#000000" x="1683.6" y="904.3" width="24.4" height="24.65" shape-rendering="crispEdges"/><rect fill="#121212" x="0" y="928.7" width="0" height="24.65" shape-rendering="crispEdges"/><rect fill="#121212" x="0" y="928.7" width="1708" height="24.65" shape-rendering="crispEdges"/><rect fill="#121212" x="0" y="953.1" width="585.6" height="24.65" shape-rendering="crispEdges"/><rect fill="#121212" x="585.6" y="953.1" width="1122.4" height="24.65" shape-rendering="crispEdges"/><rect fill="#121212" x="0" y="977.5" width="500.2" height="24.65" shape-rendering="crispEdges"/><rect fill="#121212" x="500.2" y="977.5" width="1207.8" height="24.65" shape-rendering="crispEdges"/><rect fill="#656565" x="0" y="1001.9" width="12.2" height="24.65" shape-rendering="crispEdges"/><rect fill="#272727" x="12.2" y="1001.9" width="1683.6" height="24.65" shape-rendering="crispEdges"/><rect fill="#121212" x="1695.8" y="1001.9" width="12.2" height="24.65" shape-rendering="crispEdges"/><rect fill="#656565" x="0" y="1026.3" width="12.2" height="24.65" shape-rendering="crispEdges"/><rect fill="#272727" x="12.2" y="1026.3" width="24.4" height="24.65" shape-rendering="crispEdges"/><rect fill="#272727" x="36.6" y="1026.3" width="329.4" height="24.65" shape-rendering="crispEdges"/><rect fill="#272727" x="366" y="1026.3" width="1305.4" height="24.65" shape-rendering="crispEdges"/><rect fill="#272727" x="1671.4" y="1026.3" width="24.4" height="24.65" shape-rendering="crispEdges"/><rect fill="#121212" x="1695.8" y="1026.3" width="12.2" height="24.65" shape-rendering="crispEdges"/><rect fill="#656565" x="0" y="1050.7" width="12.2" height="24.65" shape-rendering="crispEdges"/><rect fill="#272727" x="12.2" y="1050.7" width="1683.6" height="24.65" shape-rendering="crispEdges"/><rect fill="#121212" x="1695.8" y="1050.7" width="12.2" height="24.65" shape-rendering="crispEdges"/>
    <g class="terminal-3826670751-matrix">
    <text class="terminal-3826670751-r1" x="0" y="20" textLength="890.6" clip-path="url(#terminal-3826670751-line-0)">Registered&#160;tui-local3&#160;in&#160;/tmp/harness-model-management-check/models.toml.</text><text class="terminal-3826670751-r2" x="1708" y="20" textLength="12.2" clip-path="url(#terminal-3826670751-line-0)">
</text><text class="terminal-3826670751-r1" x="0" y="44.4" textLength="890.6" clip-path="url(#terminal-3826670751-line-1)">SHA-256:&#160;d98cdcbd03e17ce47681435b5150e34c1417f50b5c0019dd560e4882c5745785</text><text class="terminal-3826670751-r2" x="1708" y="44.4" textLength="12.2" clip-path="url(#terminal-3826670751-line-1)">
</text><text class="terminal-3826670751-r1" x="0" y="68.8" textLength="976" clip-path="url(#terminal-3826670751-line-2)">File&#160;matches&#160;Qwen/Qwen3-8B-GGUF@7c41481f57cb95916b40956ab2f0b139b296d974&#160;(cached</text><text class="terminal-3826670751-r2" x="1708" y="68.8" textLength="12.2" clip-path="url(#terminal-3826670751-line-2)">
</text><text class="terminal-3826670751-r1" x="0" y="93.2" textLength="122" clip-path="url(#terminal-3826670751-line-3)">metadata).</text><text class="terminal-3826670751-r2" x="1708" y="93.2" textLength="12.2" clip-path="url(#terminal-3826670751-line-3)">
</text><text class="terminal-3826670751-r1" x="0" y="117.6" textLength="366" clip-path="url(#terminal-3826670751-line-4)">Previous&#160;catalog&#160;backed&#160;up&#160;to&#160;</text><text class="terminal-3826670751-r2" x="1708" y="117.6" textLength="12.2" clip-path="url(#terminal-3826670751-line-4)">
</text><text class="terminal-3826670751-r1" x="0" y="142" textLength="976" clip-path="url(#terminal-3826670751-line-5)">/tmp/harness-model-management-check/models.toml.before-06ffdf50dddbd066f3410b424</text><text class="terminal-3826670751-r2" x="1708" y="142" textLength="12.2" clip-path="url(#terminal-3826670751-line-5)">
</text><text class="terminal-3826670751-r1" x="0" y="166.4" textLength="536.8" clip-path="url(#terminal-3826670751-line-6)">3800ddb01806b06cbf716b56cfa2e040234ecdf.bak.</text><text class="terminal-3826670751-r2" x="1708" y="166.4" textLength="12.2" clip-path="url(#terminal-3826670751-line-6)">
</text><text class="terminal-3826670751-r1" x="0" y="190.8" textLength="793" clip-path="url(#terminal-3826670751-line-7)">Select&#160;with&#160;/model&#160;tui-local3;&#160;the&#160;model&#160;starts&#160;on&#160;the&#160;next&#160;turn.</text><text class="terminal-3826670751-r2" x="1708" y="190.8" textLength="12.2" clip-path="url(#terminal-3826670751-line-7)">
</text><text class="terminal-3826670751-r1" x="0" y="215.2" textLength="963.8" clip-path="url(#terminal-3826670751-line-8)">Registration&#160;checks&#160;the&#160;file&#160;and&#160;setup;&#160;inference&#160;quality&#160;and&#160;hardware&#160;fit&#160;are&#160;</text><text class="terminal-3826670751-r2" x="1708" y="215.2" textLength="12.2" clip-path="url(#terminal-3826670751-line-8)">
</text><text class="terminal-3826670751-r1" x="0" y="239.6" textLength="109.8" clip-path="url(#terminal-3826670751-line-9)">untested.</text><text class="terminal-3826670751-r2" x="1708" y="239.6" textLength="12.2" clip-path="url(#terminal-3826670751-line-9)">
</text><text class="terminal-3826670751-r1" x="0" y="264" textLength="463.6" clip-path="url(#terminal-3826670751-line-10)">model&#160;→&#160;tui-local3&#160;(openai/tui-local3)</text><text class="terminal-3826670751-r2" x="1708" y="264" textLength="12.2" clip-path="url(#terminal-3826670751-line-10)">
</text><text class="terminal-3826670751-r1" x="0" y="288.4" textLength="963.8" clip-path="url(#terminal-3826670751-line-11)">queued&#160;#1:&#160;Reply&#160;with&#160;exactly&#160;SETUP_TUI_OK&#160;and&#160;no&#160;other&#160;text.&#160;Do&#160;not&#160;use&#160;tools.</text><text class="terminal-3826670751-r2" x="1708" y="288.4" textLength="12.2" clip-path="url(#terminal-3826670751-line-11)">
</text><text class="terminal-3826670751-r1" x="0" y="312.8" textLength="854" clip-path="url(#terminal-3826670751-line-12)">&gt;&#160;Reply&#160;with&#160;exactly&#160;SETUP_TUI_OK&#160;and&#160;no&#160;other&#160;text.&#160;Do&#160;not&#160;use&#160;tools.</text><text class="terminal-3826670751-r2" x="1708" y="312.8" textLength="12.2" clip-path="url(#terminal-3826670751-line-12)">
</text><text class="terminal-3826670751-r1" x="0" y="337.2" textLength="976" clip-path="url(#terminal-3826670751-line-13)">SETUP_TUI_OK&#160;&#160;&#160;&#160;&#160;&#160;&#160;&#160;&#160;&#160;&#160;&#160;&#160;&#160;&#160;&#160;&#160;&#160;&#160;&#160;&#160;&#160;&#160;&#160;&#160;&#160;&#160;&#160;&#160;&#160;&#160;&#160;&#160;&#160;&#160;&#160;&#160;&#160;&#160;&#160;&#160;&#160;&#160;&#160;&#160;&#160;&#160;&#160;&#160;&#160;&#160;&#160;&#160;&#160;&#160;&#160;&#160;&#160;&#160;&#160;&#160;&#160;&#160;&#160;&#160;&#160;&#160;&#160;</text><text class="terminal-3826670751-r2" x="1708" y="337.2" textLength="12.2" clip-path="url(#terminal-3826670751-line-13)">
</text><text class="terminal-3826670751-r2" x="1708" y="361.6" textLength="12.2" clip-path="url(#terminal-3826670751-line-14)">
</text><text class="terminal-3826670751-r2" x="1708" y="386" textLength="12.2" clip-path="url(#terminal-3826670751-line-15)">
</text><text class="terminal-3826670751-r2" x="1708" y="410.4" textLength="12.2" clip-path="url(#terminal-3826670751-line-16)">
</text><text class="terminal-3826670751-r2" x="1708" y="434.8" textLength="12.2" clip-path="url(#terminal-3826670751-line-17)">
</text><text class="terminal-3826670751-r2" x="1708" y="459.2" textLength="12.2" clip-path="url(#terminal-3826670751-line-18)">
</text><text class="terminal-3826670751-r2" x="1708" y="483.6" textLength="12.2" clip-path="url(#terminal-3826670751-line-19)">
</text><text class="terminal-3826670751-r2" x="1708" y="508" textLength="12.2" clip-path="url(#terminal-3826670751-line-20)">
</text><text class="terminal-3826670751-r2" x="1708" y="532.4" textLength="12.2" clip-path="url(#terminal-3826670751-line-21)">
</text><text class="terminal-3826670751-r2" x="1708" y="556.8" textLength="12.2" clip-path="url(#terminal-3826670751-line-22)">
</text><text class="terminal-3826670751-r2" x="1708" y="581.2" textLength="12.2" clip-path="url(#terminal-3826670751-line-23)">
</text><text class="terminal-3826670751-r2" x="1708" y="605.6" textLength="12.2" clip-path="url(#terminal-3826670751-line-24)">
</text><text class="terminal-3826670751-r2" x="1708" y="630" textLength="12.2" clip-path="url(#terminal-3826670751-line-25)">
</text><text class="terminal-3826670751-r2" x="1708" y="654.4" textLength="12.2" clip-path="url(#terminal-3826670751-line-26)">
</text><text class="terminal-3826670751-r2" x="1708" y="678.8" textLength="12.2" clip-path="url(#terminal-3826670751-line-27)">
</text><text class="terminal-3826670751-r2" x="1708" y="703.2" textLength="12.2" clip-path="url(#terminal-3826670751-line-28)">
</text><text class="terminal-3826670751-r2" x="1708" y="727.6" textLength="12.2" clip-path="url(#terminal-3826670751-line-29)">
</text><text class="terminal-3826670751-r2" x="1708" y="752" textLength="12.2" clip-path="url(#terminal-3826670751-line-30)">
</text><text class="terminal-3826670751-r2" x="1708" y="776.4" textLength="12.2" clip-path="url(#terminal-3826670751-line-31)">
</text><text class="terminal-3826670751-r2" x="1708" y="800.8" textLength="12.2" clip-path="url(#terminal-3826670751-line-32)">
</text><text class="terminal-3826670751-r2" x="1708" y="825.2" textLength="12.2" clip-path="url(#terminal-3826670751-line-33)">
</text><text class="terminal-3826670751-r2" x="1708" y="849.6" textLength="12.2" clip-path="url(#terminal-3826670751-line-34)">
</text><text class="terminal-3826670751-r2" x="1708" y="874" textLength="12.2" clip-path="url(#terminal-3826670751-line-35)">
</text><text class="terminal-3826670751-r2" x="1708" y="898.4" textLength="12.2" clip-path="url(#terminal-3826670751-line-36)">
</text><text class="terminal-3826670751-r2" x="1708" y="922.8" textLength="12.2" clip-path="url(#terminal-3826670751-line-37)">
</text><text class="terminal-3826670751-r2" x="1708" y="947.2" textLength="12.2" clip-path="url(#terminal-3826670751-line-38)">
</text><text class="terminal-3826670751-r1" x="0" y="971.6" textLength="585.6" clip-path="url(#terminal-3826670751-line-39)">tui-local3&#160;|&#160;in&#160;n/a&#160;out&#160;n/a&#160;|&#160;cost&#160;n/a&#160;|&#160;tools&#160;0</text><text class="terminal-3826670751-r2" x="1708" y="971.6" textLength="12.2" clip-path="url(#terminal-3826670751-line-39)">
</text><text class="terminal-3826670751-r1" x="0" y="996" textLength="500.2" clip-path="url(#terminal-3826670751-line-40)">tui-local3&#160;|&#160;ctx&#160;15%&#160;|&#160;cost&#160;n/a&#160;|&#160;tools&#160;0</text><text class="terminal-3826670751-r2" x="1708" y="996" textLength="12.2" clip-path="url(#terminal-3826670751-line-40)">
</text><text class="terminal-3826670751-r3" x="0" y="1020.4" textLength="12.2" clip-path="url(#terminal-3826670751-line-41)">▊</text><text class="terminal-3826670751-r4" x="12.2" y="1020.4" textLength="1683.6" clip-path="url(#terminal-3826670751-line-41)">▔▔▔▔▔▔▔▔▔▔▔▔▔▔▔▔▔▔▔▔▔▔▔▔▔▔▔▔▔▔▔▔▔▔▔▔▔▔▔▔▔▔▔▔▔▔▔▔▔▔▔▔▔▔▔▔▔▔▔▔▔▔▔▔▔▔▔▔▔▔▔▔▔▔▔▔▔▔▔▔▔▔▔▔▔▔▔▔▔▔▔▔▔▔▔▔▔▔▔▔▔▔▔▔▔▔▔▔▔▔▔▔▔▔▔▔▔▔▔▔▔▔▔▔▔▔▔▔▔▔▔▔▔▔▔▔▔▔</text><text class="terminal-3826670751-r4" x="1695.8" y="1020.4" textLength="12.2" clip-path="url(#terminal-3826670751-line-41)">▎</text><text class="terminal-3826670751-r2" x="1708" y="1020.4" textLength="12.2" clip-path="url(#terminal-3826670751-line-41)">
</text><text class="terminal-3826670751-r3" x="0" y="1044.8" textLength="12.2" clip-path="url(#terminal-3826670751-line-42)">▊</text><text class="terminal-3826670751-r5" x="36.6" y="1044.8" textLength="329.4" clip-path="url(#terminal-3826670751-line-42)">prompt&#160;(/help&#160;for&#160;commands)</text><text class="terminal-3826670751-r4" x="1695.8" y="1044.8" textLength="12.2" clip-path="url(#terminal-3826670751-line-42)">▎</text><text class="terminal-3826670751-r2" x="1708" y="1044.8" textLength="12.2" clip-path="url(#terminal-3826670751-line-42)">
</text><text class="terminal-3826670751-r3" x="0" y="1069.2" textLength="12.2" clip-path="url(#terminal-3826670751-line-43)">▊</text><text class="terminal-3826670751-r4" x="12.2" y="1069.2" textLength="1683.6" clip-path="url(#terminal-3826670751-line-43)">▁▁▁▁▁▁▁▁▁▁▁▁▁▁▁▁▁▁▁▁▁▁▁▁▁▁▁▁▁▁▁▁▁▁▁▁▁▁▁▁▁▁▁▁▁▁▁▁▁▁▁▁▁▁▁▁▁▁▁▁▁▁▁▁▁▁▁▁▁▁▁▁▁▁▁▁▁▁▁▁▁▁▁▁▁▁▁▁▁▁▁▁▁▁▁▁▁▁▁▁▁▁▁▁▁▁▁▁▁▁▁▁▁▁▁▁▁▁▁▁▁▁▁▁▁▁▁▁▁▁▁▁▁▁▁▁▁▁</text><text class="terminal-3826670751-r4" x="1695.8" y="1069.2" textLength="12.2" clip-path="url(#terminal-3826670751-line-43)">▎</text>
    </g>
    </g>
</svg>
